<?xml version="1.0" encoding="iso-8859-1"?>
<!-- Simplified SVG -->
<svg height="800px" width="800px" version="1.1" xmlns="http://www.w3.org/2000/svg" viewBox="0 0 512.009 512.009">
    <circle style="fill:#F7B239;" cx="256.004" cy="256.004" r="256.004"/>
    <path style="fill:#4D4D4D;" d="M304.789,362.943c0,12.93-2.72,25-7.414,35.209c-8.616,18.75-23.924,31.211-41.371,31.211
        s-32.755-12.462-41.371-31.211c-4.706-10.21-7.426-22.279-7.426-35.209c0-36.677,21.849-66.421,48.797-66.421
        S304.789,326.266,304.789,362.943z"/>
    <path style="fill:#2197D8;" d="M428.977,431.138c0,5.946-0.696,10.944-1.872,15.283c-26.657,23.962-58.362,42.408-93.331,53.541
        c2.391-31.907,26.733-33.641,26.733-68.824c0-37.006-26.923-37.006-26.923-74.012s26.923-37.006,26.923-74.012
        c0-36.563-26.303-36.993-26.91-72.721c24.734,1.594,50.328,7.996,70.406,14.284c6.161,22.444,24.974,27.517,24.974,58.438
        c0,37.006-26.923,37.006-26.923,74.012S428.977,394.132,428.977,431.138z"/>
</svg>
